<svg width="112" height="27" viewBox="0 0 112 27" fill="none" xmlns="http://www.w3.org/2000/svg">
<path d="M46.4216 15.8911L53.9643 25.9427H59.7004L50.5652 13.9718C50.0696 13.3091 49.8567 12.8195 49.8567 12.3311C49.8567 11.8427 50.1755 11.3887 50.7769 10.7259L59.5235 0.98843H53.7514L46.3157 9.29506C45.1827 10.5861 44.6511 11.4941 44.6511 12.3666C44.6511 13.4833 45.2886 14.3903 46.4216 15.8911ZM86.2568 13.5178C86.2568 6.25903 91.3914 0.5 99.04 0.5C106.688 0.5 112 5.94488 112 13.5178C112 21.0906 106.547 26.4312 99.076 26.4312C91.0738 26.4312 86.2579 20.9175 86.2579 13.5178H86.2568ZM107.042 13.4833C107.042 8.38814 103.891 4.61835 99.0749 4.61835C94.2589 4.61835 91.2135 8.3182 91.2135 13.4833C91.2135 18.6485 94.4707 22.3828 99.0749 22.3828C103.926 22.3828 107.042 18.5441 107.042 13.4833ZM72.3405 25.9427H63.3822V21.8244H73.2258C76.0584 21.8244 77.5101 21.0918 77.5101 19.1369C77.5101 17.3919 76.3771 16.8335 73.2967 15.9954L70.3583 15.1929C64.87 13.692 63.0285 11.947 63.0285 7.82866C63.0285 3.71031 65.5074 0.98843 71.4913 0.98843H80.4497V5.17671H71.4204C68.9065 5.17671 67.6665 5.73508 67.6665 7.51452C67.6665 9.18961 68.7995 9.99219 71.7031 10.7248L74.7485 11.493C79.8471 12.784 82.2551 14.599 82.2551 18.6474C82.2551 23.3241 79.6343 25.9416 72.3405 25.9416V25.9427ZM28.185 26.5011C21.7055 26.5011 17.8098 23.081 17.8098 16.3806V1.02395H22.5547V16.0998C22.5547 19.7297 23.7238 22.3816 28.185 22.3816C32.6462 22.3816 33.8152 19.904 33.8152 16.0643V0.98843H38.5602V16.3451C38.5602 22.9766 34.6656 26.5011 28.185 26.5011ZM4.7799 1.02395H0V21.1961C0 24.5463 1.41685 25.9427 4.28434 25.9427H13.5265V21.8599H6.58645C5.20564 21.8599 4.78103 21.4414 4.78103 20.1149V1.02395H4.7799Z" fill="#383838"/>
</svg>
